<svg xmlns="http://www.w3.org/2000/svg" viewBox="0 0 512 512"><rect x="8" y="8" width="496" height="496" rx="116" fill="#fff"/><path d="M220 82H326V218C326 258 346 281 382 303C424 329 444 365 430 402C416 438 382 454 337 454H158C112 454 76 420 76 376C76 342 94 316 124 300L174 273C205 257 220 237 220 207V82Z" fill="none" stroke="#102b52" stroke-width="28" stroke-linecap="round" stroke-linejoin="round"/><path d="M222 134H324M222 178H324M103 328L179 374M330 307L298 382" fill="none" stroke="#102b52" stroke-width="21" stroke-linecap="round"/></svg>