<svg xmlns="http://www.w3.org/2000/svg" viewBox="0 0 512 512">
<rect width="512" height="512" rx="104" fill="#ffffff"/>
<path d="M215 82h112v146c0 43 25 68 61 93 22 16 31 45 21 71-12 30-42 49-75 49H163c-43 0-78-35-78-78 0-31 18-58 46-71l50-24c22-11 34-31 34-56V82z" fill="none" stroke="#102b52" stroke-width="30" stroke-linecap="round" stroke-linejoin="round"/>
<path d="M218 133h106M217 180h108M118 322l71 47M329 309l-33 70" fill="none" stroke="#102b52" stroke-width="24" stroke-linecap="round"/>
</svg>